<?xml version="1.0" encoding="UTF-8"?>
<svg id="SVGDoc" width="76" height="12" xmlns="http://www.w3.org/2000/svg" version="1.1" xmlns:xlink="http://www.w3.org/1999/xlink" xmlns:avocode="https://avocode.com/" viewBox="0 0 76 12"><defs></defs><desc>Generated with Avocode.</desc><g><g><title>Grupo 237</title><g><title>Trazado 300</title><path d="M8.86142,8.63316l-1.16681,0.86636l-1.43163,-1.99297l-1.35324,1.99263l-1.18232,-0.8662l1.43402,-1.89497l-2.23649,-0.75391l0.46454,-1.35922l2.18979,0.85207v-2.36549h1.51224v2.36481l2.1944,-0.85187l0.44954,1.35919l-2.29375,0.75391zM6.32927,0.60147c-3.15212,0 -5.70744,2.55533 -5.70744,5.70728c0,3.15227 2.55533,5.70761 5.70744,5.70761c3.15194,0 5.70727,-2.55534 5.70727,-5.70761c0,-3.15195 -2.55533,-5.70728 -5.70727,-5.70728z" fill="#ffffff" fill-opacity="1"></path></g><g><title>Grupo 188</title><g><title>Grupo 178</title><g><title>Trazado 301</title><path d="M16.19101,8.6727v-1.56662h1.79767c0.78952,0 1.15404,0.3037 1.15404,0.76535v0.02403c0,0.4981 -0.41309,0.77724 -1.12967,0.77724zM16.19102,5.45412v-1.494h1.53064c0.7043,0 1.06865,0.26739 1.06865,0.72885v0.0242c0,0.49795 -0.40099,0.74095 -1.11757,0.74095zM13.89555,10.56786h4.38454c2.02841,0 3.21873,-0.88665 3.21873,-2.34438v-0.02437c0,-1.15367 -0.65575,-1.73683 -1.68811,-2.07678c0.75289,-0.32789 1.31168,-0.91121 1.31168,-1.89482v-0.02455c0,-0.58264 -0.20654,-1.03235 -0.54652,-1.3725c-0.49811,-0.4981 -1.25116,-0.76498 -2.31981,-0.76498h-4.3605z" fill="#ffffff" fill-opacity="1"></path></g></g><g><title>Grupo 179</title><g><title>Trazado 302</title><path d="M35.77221,2.06548v0h2.19727v0l3.49823,4.49394v0v-4.49394v0h2.33224v0v8.50238v0h-2.06506v0l-3.63162,-4.66418v0v4.66418v0h-2.33105v0z" fill="#ffffff" fill-opacity="1"></path></g></g><g><title>Grupo 180</title><g><title>Trazado 303</title><path d="M31.75935,7.53453l1.35086,-2.00064v2.00064zM30.5743,9.29334h2.53592v1.26157h2.10254v-8.5h-2.07715l-5.96375,8.5h2.54849z" fill="#ffffff" fill-opacity="1"></path></g></g><g><title>Grupo 181</title><g><title>Trazado 304</title><path d="M62.77094,2.05014v0h2.10358v0v5.3927v0l3.77356,-5.3927v0h2.52435v0l-5.9411,8.50357v0h-2.46039v0z" fill="#ffffff" fill-opacity="1"></path></g></g><g><title>Grupo 183</title><g><title>Grupo 182</title><g><title>Trazado 305</title><path d="M46.7198,8.4786v-4.32402h0.95996c1.40863,0 2.34418,0.7895 2.34418,2.1499v0.02422c0,1.37266 -0.93555,2.1499 -2.34418,2.1499zM44.36353,10.56786h3.23099c3.06079,0 4.84619,-1.82203 4.84619,-4.27563v-0.02422c0,-2.4534 -1.76102,-4.20253 -4.79779,-4.20253h-3.27939z" fill="#ffffff" fill-opacity="1"></path></g></g></g><g><title>Grupo 184</title><g><title>Trazado 306</title><path d="M52.80677,2.06548v0h2.35645v0v6.43733v0h4.11734v0v2.06505v0h-6.47379v0z" fill="#ffffff" fill-opacity="1"></path></g></g><g><title>Grupo 185</title><g><title>Trazado 307</title><path d="M59.84104,2.06548v0h2.36859v0v8.50238v0h-2.36859v0z" fill="#ffffff" fill-opacity="1"></path></g></g><g><title>Grupo 186</title><g><title>Trazado 308</title><path d="M24.17465,4.10601h1.54256c0.78954,0 1.27538,0.34013 1.27538,1.00815v0.0242c0,0.61943 -0.46149,1.00816 -1.26311,1.00816h-1.55482zM24.17465,7.99276h1.03252l1.49554,2.2486l1.37079,-1.96281l-0.46147,-0.67448c1.05672,-0.44939 1.7491,-1.31183 1.7491,-2.6114v-0.0242c0,-0.83826 -0.25493,-1.49434 -0.7532,-1.98001c-0.57072,-0.58299 -1.46965,-0.92296 -2.76936,-0.92296h-4.0202v8.50238h2.35629z" fill="#ffffff" fill-opacity="1"></path></g></g><g><title>Grupo 187</title><g><title>Trazado 309</title><path d="M71.33963,7.21541v0h4.08105v0v-1.85837v0h-4.08105v0v-1.28754v0h4.5061v0v-2.00397v0h-3.99689v0l-2.84137,4.06683v0v4.43542v0h6.89899v0v-2.00424v0h-4.56683v0z" fill="#ffffff" fill-opacity="1"></path></g></g></g></g></g></svg>